<?xml version="1.0" encoding="UTF-8"?>
<svg viewBox="0 0 1285.5042 3270.8088" xmlns="http://www.w3.org/2000/svg" xmlns:xlink="http://www.w3.org/1999/xlink">
 <defs>
  <linearGradient id="i">
   <stop stop-color="#6eb81e" stop-opacity=".5106" offset="0"/>
   <stop stop-color="#aed61b" stop-opacity=".4397" offset=".514"/>
   <stop stop-color="#6eb81e" stop-opacity=".4043" offset="1"/>
  </linearGradient>
  <linearGradient id="j">
   <stop stop-color="#6eb81e" stop-opacity=".7872" offset="0"/>
   <stop stop-color="#96ca1c" stop-opacity=".7882" offset=".8586"/>
   <stop stop-color="#aed61b" stop-opacity=".7804" offset="1"/>
  </linearGradient>
  <linearGradient id="k">
   <stop stop-color="#6eb81e" offset="0"/>
   <stop stop-color="#aed61b" offset=".514"/>
   <stop stop-color="#6eb81e" offset="1"/>
  </linearGradient>
  <linearGradient id="ai">
   <stop stop-color="#6eb81e" offset="0"/>
   <stop stop-color="#97cb1c" offset=".8586"/>
   <stop stop-color="#aed61b" offset="1"/>
  </linearGradient>
  <linearGradient id="n" x1="-2052.4" x2="-1917.2" y1="-638.01" y2="63.293" gradientUnits="userSpaceOnUse">
   <stop stop-color="#568f17" offset="0"/>
   <stop stop-color="#82af18" offset=".6083"/>
   <stop stop-color="#8aaa15" offset="1"/>
  </linearGradient>
  <linearGradient id="h" x1="314.29" x2="226.5" y1="410.74" y2="421.34" gradientUnits="userSpaceOnUse" xlink:href="#ai"/>
  <linearGradient id="g" x2="0" y1="246.39" y2="227.91" gradientUnits="userSpaceOnUse" xlink:href="#k"/>
  <linearGradient id="f" x2="0" y1="641.48" y2="631.75" gradientUnits="userSpaceOnUse" xlink:href="#k"/>
  <linearGradient id="p" x1="-2346.4" x2="-2297" y1="-665.79" y2="-604.36" gradientUnits="userSpaceOnUse" xlink:href="#k"/>
  <linearGradient id="o" x1="-2154.4" x2="-2448.1" y1="-645.78" y2="-65.778" gradientUnits="userSpaceOnUse" xlink:href="#ai"/>
  <linearGradient id="m" x1="-1959.5" x2="-1870.6" y1="-457.17" y2="-508.6" gradientUnits="userSpaceOnUse" xlink:href="#k"/>
  <linearGradient id="l" x1="-1705.6" x2="-1702.4" y1="-743.09" y2="-771.66" gradientUnits="userSpaceOnUse" xlink:href="#ai"/>
  <linearGradient id="e" x1="-2060.9" x2="-2044.2" y1="-1016.9" y2="-996.14" gradientUnits="userSpaceOnUse" xlink:href="#j"/>
  <linearGradient id="d" x1="-1996.1" x2="-2095.1" y1="-1010.1" y2="-814.58" gradientUnits="userSpaceOnUse" xlink:href="#i"/>
  <linearGradient id="c" x1="-1961.7" x2="-1916.2" y1="-1007.5" y2="-771.06" gradientUnits="userSpaceOnUse" xlink:href="#i"/>
  <linearGradient id="b" x1="-1930.4" x2="-1900.5" y1="-946.52" y2="-963.86" gradientUnits="userSpaceOnUse" xlink:href="#j"/>
  <linearGradient id="a" x1="-1844.8" x2="-1843.8" y1="-1042.9" y2="-1052.5" gradientUnits="userSpaceOnUse" xlink:href="#j"/>
  <linearGradient id="ah" x1="314.29" x2="226.5" y1="410.74" y2="421.34" gradientTransform="matrix(.8202 0 0 1.1672 -1772 -2400.7)" gradientUnits="userSpaceOnUse" xlink:href="#j"/>
  <linearGradient id="ag" x2="0" y1="-2113.1" y2="-2134.6" gradientUnits="userSpaceOnUse" xlink:href="#i"/>
  <linearGradient id="af" x2="0" y1="-1651.9" y2="-1663.3" gradientUnits="userSpaceOnUse" xlink:href="#k"/>
  <linearGradient id="ae" x1="314.29" x2="226.5" y1="410.74" y2="421.34" gradientTransform="matrix(.87715 0 0 1.1647 -1788.6 -1935.3)" gradientUnits="userSpaceOnUse" xlink:href="#j"/>
  <linearGradient id="ad" x2="0" y1="-1648.3" y2="-1669.8" gradientUnits="userSpaceOnUse" xlink:href="#i"/>
  <linearGradient id="ac" x2="0" y1="-1188.1" y2="-1199.5" gradientUnits="userSpaceOnUse" xlink:href="#k"/>
  <linearGradient id="ab" x1="314.29" x2="226.5" y1="410.74" y2="421.34" gradientTransform="matrix(.92524 0 0 1.1635 -1802.5 -1471.6)" gradientUnits="userSpaceOnUse" xlink:href="#j"/>
  <linearGradient id="aa" x2="0" y1="-1184.9" y2="-1206.4" gradientUnits="userSpaceOnUse" xlink:href="#i"/>
  <linearGradient id="z" x2="0" y1="-725.26" y2="-736.58" gradientUnits="userSpaceOnUse" xlink:href="#k"/>
  <linearGradient id="y" x1="314.29" x2="226.5" y1="410.74" y2="421.34" gradientTransform="matrix(.97333 0 0 1.1656 -1816.4 -1009)" gradientUnits="userSpaceOnUse" xlink:href="#j"/>
  <linearGradient id="x" x2="0" y1="-721.81" y2="-743.35" gradientUnits="userSpaceOnUse" xlink:href="#i"/>
  <linearGradient id="w" x2="0" y1="-261.29" y2="-272.63" gradientUnits="userSpaceOnUse" xlink:href="#k"/>
  <linearGradient id="v" x1="314.29" x2="226.5" y1="410.74" y2="421.34" gradientTransform="matrix(1.0062 0 0 1.1635 -1826.2 -544.83)" gradientUnits="userSpaceOnUse" xlink:href="#j"/>
  <linearGradient id="u" x2="0" y1="-258.16" y2="-279.66" gradientUnits="userSpaceOnUse" xlink:href="#i"/>
  <linearGradient id="t" x2="0" y1="201.52" y2="190.2" gradientUnits="userSpaceOnUse" xlink:href="#k"/>
  <linearGradient id="s" x1="314.29" x2="226.5" y1="410.74" y2="421.34" gradientTransform="matrix(1.0543 0 0 1.1614 -1839.8 -80.362)" gradientUnits="userSpaceOnUse" xlink:href="#j"/>
  <linearGradient id="r" x2="0" y1="205.78" y2="184.32" gradientUnits="userSpaceOnUse" xlink:href="#i"/>
  <linearGradient id="q" x2="0" y1="664.62" y2="653.32" gradientUnits="userSpaceOnUse" xlink:href="#i"/>
  <linearGradient id="ba" x2="0" y1="615.99" y2="602.86" gradientUnits="userSpaceOnUse" xlink:href="#i"/>
  <linearGradient id="az" x2="0" y1="82.909" y2="57.976" gradientUnits="userSpaceOnUse" xlink:href="#i"/>
  <linearGradient id="ay" x1="314.29" x2="226.5" y1="410.74" y2="421.34" gradientTransform="matrix(1.0973 0 0 1.3493 -912.59 -249.54)" gradientUnits="userSpaceOnUse" xlink:href="#j"/>
  <linearGradient id="ax" x2="0" y1="77.955" y2="64.804" gradientUnits="userSpaceOnUse" xlink:href="#k"/>
  <linearGradient id="aw" x2="0" y1="-456.1" y2="-481.08" gradientUnits="userSpaceOnUse" xlink:href="#i"/>
  <linearGradient id="av" x1="314.29" x2="226.5" y1="410.74" y2="421.34" gradientTransform="matrix(1.0472 0 0 1.3518 -898.39 -789.16)" gradientUnits="userSpaceOnUse" xlink:href="#j"/>
  <linearGradient id="au" x2="0" y1="-459.74" y2="-472.91" gradientUnits="userSpaceOnUse" xlink:href="#k"/>
  <linearGradient id="at" x2="0" y1="-994.78" y2="-1019.8" gradientUnits="userSpaceOnUse" xlink:href="#i"/>
  <linearGradient id="as" x1="314.29" x2="226.5" y1="410.74" y2="421.34" gradientTransform="matrix(1.013 0 0 1.3542 -888.18 -1328.4)" gradientUnits="userSpaceOnUse" xlink:href="#j"/>
  <linearGradient id="ar" x2="0" y1="-998.79" y2="-1011.9" gradientUnits="userSpaceOnUse" xlink:href="#k"/>
  <linearGradient id="aq" x2="0" y1="-1532.8" y2="-1557.8" gradientUnits="userSpaceOnUse" xlink:href="#i"/>
  <linearGradient id="ap" x1="314.29" x2="226.5" y1="410.74" y2="421.34" gradientTransform="matrix(.96292 0 0 1.3518 -873.7 -1865.9)" gradientUnits="userSpaceOnUse" xlink:href="#j"/>
  <linearGradient id="ao" x2="0" y1="-1536.6" y2="-1549.7" gradientUnits="userSpaceOnUse" xlink:href="#k"/>
  <linearGradient id="an" x2="0" y1="-2071.2" y2="-2096.2" gradientUnits="userSpaceOnUse" xlink:href="#i"/>
  <linearGradient id="am" x1="314.29" x2="226.5" y1="410.74" y2="421.34" gradientTransform="matrix(.91287 0 0 1.3532 -859.22 -2404.6)" gradientUnits="userSpaceOnUse" xlink:href="#j"/>
  <linearGradient id="al" x2="0" y1="-2075.4" y2="-2088.6" gradientUnits="userSpaceOnUse" xlink:href="#k"/>
  <linearGradient id="ak" x2="0" y1="-2611.2" y2="-2636.2" gradientUnits="userSpaceOnUse" xlink:href="#i"/>
  <linearGradient id="aj" x1="314.29" x2="226.5" y1="410.74" y2="421.34" gradientTransform="matrix(.8536 0 0 1.3561 -841.96 -2945.3)" gradientUnits="userSpaceOnUse" xlink:href="#j"/>
 </defs>
 <g transform="translate(1018.2 2632.4)">
  <g transform="matrix(.88218 .15945 -.07922 .68127 1215.3 386.94)">
   <g transform="translate(432.3 -1069.1)">
    <path d="m-1993.8-1049.6c-19.79 6.349-38.191 8.9271-64.022 31.67-23.438 26.401-49.798 51.967-67.427 80.027l93.308-72.876c13.352-13.579 25.653-26.107 38.141-38.822z" fill="url(#e)"/>
    <path d="m-1989.4-1022.7c-64.902 65.732-76.72 152.09-87.519 192.75l50.741-109.31c14.546-25.295 30.886-48.617 36.778-83.433z" fill="url(#d)"/>
    <path d="m-1969.6-1029.9 44.982 106.14 6.6614 7.9898c7.182 61.955 0.6565 89.496 2.1617 149.83l-52.784-179.12c-11.326-35.134-7.6277-59.488-1.0216-84.832z" fill="url(#c)"/>
    <path d="m-1979.5-1053.3 54.487 129.75c103.52 117.24 57.862 64.247 86.497 96.033l-40.865-105.91c-30.174-48.367-117.97-159.84-100.12-119.87z" fill="url(#b)"/>
    <path d="m-1949.2-1047.9c95.517-17.912 163.16-3.6191 217.95 25.54-69.538-13.071-123.38-20.878-217.95-25.54z" fill="url(#a)"/>
   </g>
   <path d="m-1589.5-2114.7-2.0358 447.34c0.064 7.7534-4.9719 7.686-0.042 15.917l80.965 0.4168c6.0051-6.4954 0.208-6.4317 0.9689-19.762l-0.7323-443.91c-0.075-5.1521 7.1418-12.11-0.8813-16.629-26.207 1.8936-52.414 1.4338-78.621 0.2023-5.4384 7.3325-0.1146 7.2178 0.378 16.427z" fill="url(#ah)"/>
   <path d="m-1589.5-2114.7c26.497 1.7405 52.976 1.1373 79.197-1.0421-0.148-3.589 7.0686-11.068-0.9545-15.587-26.207 1.8936-52.414 1.4338-78.621 0.2023-5.4384 7.2283 0.1051 8.7811 0.1583 13.509z" fill="url(#ag)"/>
   <path d="m-1591.7-1664.4c-0.9197 4.4373-4.0917 5.5489 0.1137 12.969l80.965 0.4168c5.2284-5.2426 1.0883-8.6425 1.0207-13.867z" fill="url(#af)"/>
   <path d="m-1593.4-1649.9-2.1772 446.38c0.069 7.7369-5.3172 7.6696-0.044 15.883l86.586 0.4159c6.4221-6.4815 0.2225-6.418 1.0362-19.72l-0.7831-442.96c-0.08-5.1411 7.6376-12.084-0.9426-16.594-28.026 1.8895-53.657 1.559-81.683 0.3301-5.8161 7.3168-2.5189 7.0741-1.9921 16.264z" fill="url(#ae)"/>
   <path d="m-1593.4-1649.9c28.337 1.7367 56.654 1.1348 84.696-1.04-0.1583-3.5813 7.5593-11.044-1.0209-15.554-28.026 1.8895-53.757 1.5407-81.783 0.3118-5.8161 7.2128-2.1842 8.6523-2.1272 13.37z" fill="url(#ad)"/>
   <path d="m-1595.7-1200.6c-0.9836 4.4278-4.3758 5.5371 0.1216 12.941l86.586 0.4159c5.5915-5.2314 1.1639-8.624 1.0916-13.837z" fill="url(#ac)"/>
   <path d="m-1596.6-1186.6-2.2965 445.91c0.072 7.7285-3.726 6.4689 1.8357 14.673l89.451 1.608c6.7742-6.4746 0.2347-6.4111 1.093-19.699l-0.8261-442.49c-0.084-5.1357 8.0564-12.071-0.9942-16.576-29.563 1.8875-57.662 1.6492-87.225 0.4216-6.1349 7.3089-1.5937 6.9747-1.038 16.154z" fill="url(#ab)"/>
   <path d="m-1596.6-1186.6c29.89 1.7349 59.76 1.1336 89.34-1.0389-0.167-3.5774 7.9738-11.032-1.0768-15.537-29.563 1.8875-57.595 1.7225-87.158 0.4949-6.1349 7.2051-1.4125 8.4596-1.3524 13.172z" fill="url(#aa)"/>
   <path d="m-1599.1-737.72c-1.0375 4.423-4.6156 5.5311 0.1283 12.927l91.334 0.41553c5.898-5.2259 1.2277-8.6148 1.1514-13.822z" fill="url(#z)"/>
   <path d="m-1599.8-723.43-2.4158 446.73c0.076 7.7427-1.4742 7.6754-0.049 15.895l96.081 0.41629c7.1263-6.4865 0.2468-6.4229 1.1497-19.735l-0.869-443.3c-0.089-5.1451 8.4751-12.094-1.0458-16.606-31.1 1.891-60.646 1.6392-91.746 0.4094-6.4538 7.3224-2.122 8.027-1.1047 16.197z" fill="url(#y)"/>
   <path d="m-1599.8-723.43c31.444 1.7381 62.866 1.1357 93.983-1.0408-0.1757-3.584 8.3882-11.053-1.1327-15.566-31.1 1.891-60.646 1.6392-91.746 0.4094-6.953 6.7784-1.2289 11.091-0.9993 16.032z" fill="url(#x)"/>
   <path d="m-1602.4-273.76c-1.0914 4.4311-0.3305 4.241 0.1349 12.951l96.081 0.41629c6.2045-5.2355 1.2915-8.6306 1.2112-13.848z" fill="url(#w)"/>
   <path d="m-1602.3-259.78-2.4975 445.91c0.079 7.7285-0.6944 6.9171-0.051 15.866l99.329 0.41553c7.3672-6.4746 0.2552-6.4111 1.1887-19.699l-0.8984-442.49c-0.092-5.1357 8.7616-12.071-1.0813-16.576-32.151 1.8876-63.57 1.7958-95.721 0.56824-6.672 7.309-0.8728 6.8281-0.2685 16.008z" fill="url(#v)"/>
   <path d="m-1602.3-259.78c32.507 1.7349 64.991 1.1336 97.16-1.0389-0.1816-3.5774 8.6718-11.033-1.1711-15.537-32.151 1.8876-63.503 1.6492-95.654 0.42161-6.672 7.2051-0.6699 8.533-0.6046 13.246z" fill="url(#u)"/>
   <path d="m-1605 189.06c-1.1284 4.423-2.1908 5.0517 0.1394 12.927l99.329 0.41553c6.4143-5.2259 1.3352-8.6148 1.2522-13.822z" fill="url(#t)"/>
   <path d="m-1605.3 204.17-2.6169 445.09c0.082 7.7143-6.3912 7.6472-0.054 15.836l104.08 0.41476c7.7193-6.4627 0.2674-6.3993 1.2454-19.663l-0.9413-441.67c-0.096-5.1262 9.1804-12.049-1.1329-16.545-33.688 1.8841-66.31 1.6466-99.998 0.42123-6.9445 7.2919 0.9924 6.788-0.5792 16.124z" fill="url(#s)"/>
   <path d="m-1605.3 204.17c34.06 1.7317 68.098 1.1315 101.8-1.037-0.1903-3.5708 9.0863-11.012-1.227-15.509-33.688 1.8841-66.443 1.7932-100.13 0.56788-6.9909 7.1918-0.7969 8.3702-0.7285 13.074z" fill="url(#r)"/>
   <path d="m-1608.1 652.19c-1.1823 4.4149-5.2596 5.5209 0.1461 12.904l104.08 0.41476c6.7208-5.2163 1.399-8.599 1.312-13.797z" fill="url(#q)"/>
   <g transform="matrix(.54445 .83879 -.83879 .54445 -1353.7 1036.8)">
    <path d="m-1993.8-1049.6c-19.79 6.349-38.191 8.9271-64.022 31.67-23.438 26.401-49.798 51.967-67.427 80.027l93.308-72.876c13.352-13.579 25.653-26.107 38.141-38.822z" fill="url(#e)"/>
    <path d="m-1989.4-1022.7c-64.902 65.732-76.72 152.09-87.519 192.75l50.741-109.31c14.546-25.295 30.886-48.617 36.778-83.433z" fill="url(#d)"/>
    <path d="m-1969.6-1029.9 44.982 106.14 6.6614 7.9898c7.182 61.955 0.6565 89.496 2.1617 149.83l-52.784-179.12c-11.326-35.134-7.6277-59.488-1.0216-84.832z" fill="url(#c)"/>
    <path d="m-1979.5-1053.3 54.487 129.75c103.52 117.24 57.862 64.247 86.497 96.033l-40.865-105.91c-30.174-48.367-117.97-159.84-100.12-119.87z" fill="url(#b)"/>
    <path d="m-1949.2-1047.9c95.517-17.912 163.16-3.6191 217.95 25.54-69.538-13.071-123.38-20.878-217.95-25.54z" fill="url(#a)"/>
   </g>
   <g transform="matrix(.55949 -.06481 .07186 .50461 -326.61 -1248.6)">
    <path d="m-1993.8-1049.6c-19.79 6.349-38.191 8.9271-64.022 31.67-23.438 26.401-49.798 51.967-67.427 80.027l93.308-72.876c13.352-13.579 25.653-26.107 38.141-38.822z" fill="url(#e)"/>
    <path d="m-1989.4-1022.7c-64.902 65.732-76.72 152.09-87.519 192.75l50.741-109.31c14.546-25.295 30.886-48.617 36.778-83.433z" fill="url(#d)"/>
    <path d="m-1969.6-1029.9 44.982 106.14 6.6614 7.9898c7.182 61.955 0.6565 89.496 2.1617 149.83l-52.784-179.12c-11.326-35.134-7.6277-59.488-1.0216-84.832z" fill="url(#c)"/>
    <path d="m-1979.5-1053.3 54.487 129.75c103.52 117.24 57.862 64.247 86.497 96.033l-40.865-105.91c-30.174-48.367-117.97-159.84-100.12-119.87z" fill="url(#b)"/>
    <path d="m-1949.2-1047.9c95.517-17.912 163.16-3.6191 217.95 25.54-69.538-13.071-123.38-20.878-217.95-25.54z" fill="url(#a)"/>
   </g>
   <g transform="matrix(-.67879 -.13119 -.08718 1.0214 -3024.5 94.296)">
    <path d="m-1993.8-1049.6c-19.79 6.349-38.191 8.9271-64.022 31.67-23.438 26.401-49.798 51.967-67.427 80.027l93.308-72.876c13.352-13.579 25.653-26.107 38.141-38.822z" fill="url(#e)"/>
    <path d="m-1989.4-1022.7c-64.902 65.732-76.72 152.09-87.519 192.75l50.741-109.31c14.546-25.295 30.886-48.617 36.778-83.433z" fill="url(#d)"/>
    <path d="m-1969.6-1029.9 44.982 106.14 6.6614 7.9898c7.182 61.955 0.6565 89.496 2.1617 149.83l-52.784-179.12c-11.326-35.134-7.6277-59.488-1.0216-84.832z" fill="url(#c)"/>
    <path d="m-1979.5-1053.3 54.487 129.75c103.52 117.24 57.862 64.247 86.497 96.033l-40.865-105.91c-30.174-48.367-117.97-159.84-100.12-119.87z" fill="url(#b)"/>
    <path d="m-1949.2-1047.9c95.517-17.912 163.16-3.6191 217.95 25.54-69.538-13.071-123.38-20.878-217.95-25.54z" fill="url(#a)"/>
   </g>
   <g transform="matrix(-.79809 1.2773 1.2296 .82906 -1830.1 3144.2)">
    <path d="m-1993.8-1049.6c-19.79 6.349-38.191 8.9271-64.022 31.67-23.438 26.401-49.798 51.967-67.427 80.027l93.308-72.876c13.352-13.579 25.653-26.107 38.141-38.822z" fill="url(#e)"/>
    <path d="m-1989.4-1022.7c-64.902 65.732-76.72 152.09-87.519 192.75l50.741-109.31c14.546-25.295 30.886-48.617 36.778-83.433z" fill="url(#d)"/>
    <path d="m-1969.6-1029.9 44.982 106.14 6.6614 7.9898c7.182 61.955 0.6565 89.496 2.1617 149.83l-52.784-179.12c-11.326-35.134-7.6277-59.488-1.0216-84.832z" fill="url(#c)"/>
    <path d="m-1979.5-1053.3 54.487 129.75c103.52 117.24 57.862 64.247 86.497 96.033l-40.865-105.91c-30.174-48.367-117.97-159.84-100.12-119.87z" fill="url(#b)"/>
    <path d="m-1949.2-1047.9c95.517-17.912 163.16-3.6191 217.95 25.54-69.538-13.071-123.38-20.878-217.95-25.54z" fill="url(#a)"/>
   </g>
  </g>
  <g transform="matrix(.8914 0 0 .55214 621.99 144.51)">
   <g transform="translate(432.3 -1069.1)">
    <path d="m-1993.8-1049.6c-19.79 6.349-38.191 8.9271-64.022 31.67-23.438 26.401-49.798 51.967-67.427 80.027l93.308-72.876c13.352-13.579 25.653-26.107 38.141-38.822z" fill="url(#e)"/>
    <path d="m-1989.4-1022.7c-64.902 65.732-76.72 152.09-87.519 192.75l50.741-109.31c14.546-25.295 30.886-48.617 36.778-83.433z" fill="url(#d)"/>
    <path d="m-1969.6-1029.9 44.982 106.14 6.6614 7.9898c7.182 61.955 0.6565 89.496 2.1617 149.83l-52.784-179.12c-11.326-35.134-7.6277-59.488-1.0216-84.832z" fill="url(#c)"/>
    <path d="m-1979.5-1053.3 54.487 129.75c103.52 117.24 57.862 64.247 86.497 96.033l-40.865-105.91c-30.174-48.367-117.97-159.84-100.12-119.87z" fill="url(#b)"/>
    <path d="m-1949.2-1047.9c95.517-17.912 163.16-3.6191 217.95 25.54-69.538-13.071-123.38-20.878-217.95-25.54z" fill="url(#a)"/>
   </g>
   <path d="m-1589.5-2114.7-2.0358 447.34c0.064 7.7534-4.9719 7.686-0.042 15.917l80.965 0.4168c6.0051-6.4954 0.208-6.4317 0.9689-19.762l-0.7323-443.91c-0.075-5.1521 7.1418-12.11-0.8813-16.629-26.207 1.8936-52.414 1.4338-78.621 0.2023-5.4384 7.3325-0.1146 7.2178 0.378 16.427z" fill="url(#ah)"/>
   <path d="m-1589.5-2114.7c26.497 1.7405 52.976 1.1373 79.197-1.0421-0.148-3.589 7.0686-11.068-0.9545-15.587-26.207 1.8936-52.414 1.4338-78.621 0.2023-5.4384 7.2283 0.1051 8.7811 0.1583 13.509z" fill="url(#ag)"/>
   <path d="m-1591.7-1664.4c-0.9197 4.4373-4.0917 5.5489 0.1137 12.969l80.965 0.4168c5.2284-5.2426 1.0883-8.6425 1.0207-13.867z" fill="url(#af)"/>
   <path d="m-1593.4-1649.9-2.1772 446.38c0.069 7.7369-5.3172 7.6696-0.044 15.883l86.586 0.4159c6.4221-6.4815 0.2225-6.418 1.0362-19.72l-0.7831-442.96c-0.08-5.1411 7.6376-12.084-0.9426-16.594-28.026 1.8895-53.657 1.559-81.683 0.3301-5.8161 7.3168-2.5189 7.0741-1.9921 16.264z" fill="url(#ae)"/>
   <path d="m-1593.4-1649.9c28.337 1.7367 56.654 1.1348 84.696-1.04-0.1583-3.5813 7.5593-11.044-1.0209-15.554-28.026 1.8895-53.757 1.5407-81.783 0.3118-5.8161 7.2128-2.1842 8.6523-2.1272 13.37z" fill="url(#ad)"/>
   <path d="m-1595.7-1200.6c-0.9836 4.4278-4.3758 5.5371 0.1216 12.941l86.586 0.4159c5.5915-5.2314 1.1639-8.624 1.0916-13.837z" fill="url(#ac)"/>
   <path d="m-1596.6-1186.6-2.2965 445.91c0.072 7.7285-3.726 6.4689 1.8357 14.673l89.451 1.608c6.7742-6.4746 0.2347-6.4111 1.093-19.699l-0.8261-442.49c-0.084-5.1357 8.0564-12.071-0.9942-16.576-29.563 1.8875-57.662 1.6492-87.225 0.4216-6.1349 7.3089-1.5937 6.9747-1.038 16.154z" fill="url(#ab)"/>
   <path d="m-1596.6-1186.6c29.89 1.7349 59.76 1.1336 89.34-1.0389-0.167-3.5774 7.9738-11.032-1.0768-15.537-29.563 1.8875-57.595 1.7225-87.158 0.4949-6.1349 7.2051-1.4125 8.4596-1.3524 13.172z" fill="url(#aa)"/>
   <path d="m-1599.1-737.72c-1.0375 4.423-4.6156 5.5311 0.1283 12.927l91.334 0.41553c5.898-5.2259 1.2277-8.6148 1.1514-13.822z" fill="url(#z)"/>
   <path d="m-1599.8-723.43-2.4158 446.73c0.076 7.7427-1.4742 7.6754-0.049 15.895l96.081 0.41629c7.1263-6.4865 0.2468-6.4229 1.1497-19.735l-0.869-443.3c-0.089-5.1451 8.4751-12.094-1.0458-16.606-31.1 1.891-60.646 1.6392-91.746 0.4094-6.4538 7.3224-2.122 8.027-1.1047 16.197z" fill="url(#y)"/>
   <path d="m-1599.8-723.43c31.444 1.7381 62.866 1.1357 93.983-1.0408-0.1757-3.584 8.3882-11.053-1.1327-15.566-31.1 1.891-60.646 1.6392-91.746 0.4094-6.953 6.7784-1.2289 11.091-0.9993 16.032z" fill="url(#x)"/>
   <path d="m-1602.4-273.76c-1.0914 4.4311-0.3305 4.241 0.1349 12.951l96.081 0.41629c6.2045-5.2355 1.2915-8.6306 1.2112-13.848z" fill="url(#w)"/>
   <path d="m-1602.3-259.78-2.4975 445.91c0.079 7.7285-0.6944 6.9171-0.051 15.866l99.329 0.41553c7.3672-6.4746 0.2552-6.4111 1.1887-19.699l-0.8984-442.49c-0.092-5.1357 8.7616-12.071-1.0813-16.576-32.151 1.8876-63.57 1.7958-95.721 0.56824-6.672 7.309-0.8728 6.8281-0.2685 16.008z" fill="url(#v)"/>
   <path d="m-1602.3-259.78c32.507 1.7349 64.991 1.1336 97.16-1.0389-0.1816-3.5774 8.6718-11.033-1.1711-15.537-32.151 1.8876-63.503 1.6492-95.654 0.42161-6.672 7.2051-0.6699 8.533-0.6046 13.246z" fill="url(#u)"/>
   <path d="m-1605 189.06c-1.1284 4.423-2.1908 5.0517 0.1394 12.927l99.329 0.41553c6.4143-5.2259 1.3352-8.6148 1.2522-13.822z" fill="url(#t)"/>
   <path d="m-1605.3 204.17-2.6169 445.09c0.082 7.7143-6.3912 7.6472-0.054 15.836l104.08 0.41476c7.7193-6.4627 0.2674-6.3993 1.2454-19.663l-0.9413-441.67c-0.096-5.1262 9.1804-12.049-1.1329-16.545-33.688 1.8841-66.31 1.6466-99.998 0.42123-6.9445 7.2919 0.9924 6.788-0.5792 16.124z" fill="url(#s)"/>
   <path d="m-1605.3 204.17c34.06 1.7317 68.098 1.1315 101.8-1.037-0.1903-3.5708 9.0863-11.012-1.227-15.509-33.688 1.8841-66.443 1.7932-100.13 0.56788-6.9909 7.1918-0.7969 8.3702-0.7285 13.074z" fill="url(#r)"/>
   <path d="m-1608.1 652.19c-1.1823 4.4149-5.2596 5.5209 0.1461 12.904l104.08 0.41476c6.7208-5.2163 1.399-8.599 1.312-13.797z" fill="url(#q)"/>
   <g transform="matrix(.54445 .83879 -.83879 .54445 -1353.7 1036.8)">
    <path d="m-1993.8-1049.6c-19.79 6.349-38.191 8.9271-64.022 31.67-23.438 26.401-49.798 51.967-67.427 80.027l93.308-72.876c13.352-13.579 25.653-26.107 38.141-38.822z" fill="url(#e)"/>
    <path d="m-1989.4-1022.7c-64.902 65.732-76.72 152.09-87.519 192.75l50.741-109.31c14.546-25.295 30.886-48.617 36.778-83.433z" fill="url(#d)"/>
    <path d="m-1969.6-1029.9 44.982 106.14 6.6614 7.9898c7.182 61.955 0.6565 89.496 2.1617 149.83l-52.784-179.12c-11.326-35.134-7.6277-59.488-1.0216-84.832z" fill="url(#c)"/>
    <path d="m-1979.5-1053.3 54.487 129.75c103.52 117.24 57.862 64.247 86.497 96.033l-40.865-105.91c-30.174-48.367-117.97-159.84-100.12-119.87z" fill="url(#b)"/>
    <path d="m-1949.2-1047.9c95.517-17.912 163.16-3.6191 217.95 25.54-69.538-13.071-123.38-20.878-217.95-25.54z" fill="url(#a)"/>
   </g>
   <g transform="matrix(.55949 -.06481 .07186 .50461 -326.61 -1248.6)">
    <path d="m-1993.8-1049.6c-19.79 6.349-38.191 8.9271-64.022 31.67-23.438 26.401-49.798 51.967-67.427 80.027l93.308-72.876c13.352-13.579 25.653-26.107 38.141-38.822z" fill="url(#e)"/>
    <path d="m-1989.4-1022.7c-64.902 65.732-76.72 152.09-87.519 192.75l50.741-109.31c14.546-25.295 30.886-48.617 36.778-83.433z" fill="url(#d)"/>
    <path d="m-1969.6-1029.9 44.982 106.14 6.6614 7.9898c7.182 61.955 0.6565 89.496 2.1617 149.83l-52.784-179.12c-11.326-35.134-7.6277-59.488-1.0216-84.832z" fill="url(#c)"/>
    <path d="m-1979.5-1053.3 54.487 129.75c103.52 117.24 57.862 64.247 86.497 96.033l-40.865-105.91c-30.174-48.367-117.97-159.84-100.12-119.87z" fill="url(#b)"/>
    <path d="m-1949.2-1047.9c95.517-17.912 163.16-3.6191 217.95 25.54-69.538-13.071-123.38-20.878-217.95-25.54z" fill="url(#a)"/>
   </g>
   <g transform="matrix(-.67879 -.13119 -.08718 1.0214 -3024.5 94.296)">
    <path d="m-1993.8-1049.6c-19.79 6.349-38.191 8.9271-64.022 31.67-23.438 26.401-49.798 51.967-67.427 80.027l93.308-72.876c13.352-13.579 25.653-26.107 38.141-38.822z" fill="url(#e)"/>
    <path d="m-1989.4-1022.7c-64.902 65.732-76.72 152.09-87.519 192.75l50.741-109.31c14.546-25.295 30.886-48.617 36.778-83.433z" fill="url(#d)"/>
    <path d="m-1969.6-1029.9 44.982 106.14 6.6614 7.9898c7.182 61.955 0.6565 89.496 2.1617 149.83l-52.784-179.12c-11.326-35.134-7.6277-59.488-1.0216-84.832z" fill="url(#c)"/>
    <path d="m-1979.5-1053.3 54.487 129.75c103.52 117.24 57.862 64.247 86.497 96.033l-40.865-105.91c-30.174-48.367-117.97-159.84-100.12-119.87z" fill="url(#b)"/>
    <path d="m-1949.2-1047.9c95.517-17.912 163.16-3.6191 217.95 25.54-69.538-13.071-123.38-20.878-217.95-25.54z" fill="url(#a)"/>
   </g>
   <g transform="matrix(-.79809 1.2773 1.2296 .82906 -1830.1 3144.2)">
    <path d="m-1993.8-1049.6c-19.79 6.349-38.191 8.9271-64.022 31.67-23.438 26.401-49.798 51.967-67.427 80.027l93.308-72.876c13.352-13.579 25.653-26.107 38.141-38.822z" fill="url(#e)"/>
    <path d="m-1989.4-1022.7c-64.902 65.732-76.72 152.09-87.519 192.75l50.741-109.31c14.546-25.295 30.886-48.617 36.778-83.433z" fill="url(#d)"/>
    <path d="m-1969.6-1029.9 44.982 106.14 6.6614 7.9898c7.182 61.955 0.6565 89.496 2.1617 149.83l-52.784-179.12c-11.326-35.134-7.6277-59.488-1.0216-84.832z" fill="url(#c)"/>
    <path d="m-1979.5-1053.3 54.487 129.75c103.52 117.24 57.862 64.247 86.497 96.033l-40.865-105.91c-30.174-48.367-117.97-159.84-100.12-119.87z" fill="url(#b)"/>
    <path d="m-1949.2-1047.9c95.517-17.912 163.16-3.6191 217.95 25.54-69.538-13.071-123.38-20.878-217.95-25.54z" fill="url(#a)"/>
   </g>
  </g>
  <g transform="matrix(.88633 -.09487 .05877 .549 1336.3 97.756)">
   <g transform="translate(432.3 -1069.1)">
    <path d="m-1993.8-1049.6c-19.79 6.349-38.191 8.9271-64.022 31.67-23.438 26.401-49.798 51.967-67.427 80.027l93.308-72.876c13.352-13.579 25.653-26.107 38.141-38.822z" fill="url(#e)"/>
    <path d="m-1989.4-1022.7c-64.902 65.732-76.72 152.09-87.519 192.75l50.741-109.31c14.546-25.295 30.886-48.617 36.778-83.433z" fill="url(#d)"/>
    <path d="m-1969.6-1029.9 44.982 106.14 6.6614 7.9898c7.182 61.955 0.6565 89.496 2.1617 149.83l-52.784-179.12c-11.326-35.134-7.6277-59.488-1.0216-84.832z" fill="url(#c)"/>
    <path d="m-1979.5-1053.3 54.487 129.75c103.52 117.24 57.862 64.247 86.497 96.033l-40.865-105.91c-30.174-48.367-117.97-159.84-100.12-119.87z" fill="url(#b)"/>
    <path d="m-1949.2-1047.9c95.517-17.912 163.16-3.6191 217.95 25.54-69.538-13.071-123.38-20.878-217.95-25.54z" fill="url(#a)"/>
   </g>
   <path d="m-1589.5-2114.7-2.0358 447.34c0.064 7.7534-4.9719 7.686-0.042 15.917l80.965 0.4168c6.0051-6.4954 0.208-6.4317 0.9689-19.762l-0.7323-443.91c-0.075-5.1521 7.1418-12.11-0.8813-16.629-26.207 1.8936-52.414 1.4338-78.621 0.2023-5.4384 7.3325-0.1146 7.2178 0.378 16.427z" fill="url(#ah)"/>
   <path d="m-1589.5-2114.7c26.497 1.7405 52.976 1.1373 79.197-1.0421-0.148-3.589 7.0686-11.068-0.9545-15.587-26.207 1.8936-52.414 1.4338-78.621 0.2023-5.4384 7.2283 0.1051 8.7811 0.1583 13.509z" fill="url(#ag)"/>
   <path d="m-1591.7-1664.4c-0.9197 4.4373-4.0917 5.5489 0.1137 12.969l80.965 0.4168c5.2284-5.2426 1.0883-8.6425 1.0207-13.867z" fill="url(#af)"/>
   <path d="m-1593.4-1649.9-2.1772 446.38c0.069 7.7369-5.3172 7.6696-0.044 15.883l86.586 0.4159c6.4221-6.4815 0.2225-6.418 1.0362-19.72l-0.7831-442.96c-0.08-5.1411 7.6376-12.084-0.9426-16.594-28.026 1.8895-53.657 1.559-81.683 0.3301-5.8161 7.3168-2.5189 7.0741-1.9921 16.264z" fill="url(#ae)"/>
   <path d="m-1593.4-1649.9c28.337 1.7367 56.654 1.1348 84.696-1.04-0.1583-3.5813 7.5593-11.044-1.0209-15.554-28.026 1.8895-53.757 1.5407-81.783 0.3118-5.8161 7.2128-2.1842 8.6523-2.1272 13.37z" fill="url(#ad)"/>
   <path d="m-1595.7-1200.6c-0.9836 4.4278-4.3758 5.5371 0.1216 12.941l86.586 0.4159c5.5915-5.2314 1.1639-8.624 1.0916-13.837z" fill="url(#ac)"/>
   <path d="m-1596.6-1186.6-2.2965 445.91c0.072 7.7285-3.726 6.4689 1.8357 14.673l89.451 1.608c6.7742-6.4746 0.2347-6.4111 1.093-19.699l-0.8261-442.49c-0.084-5.1357 8.0564-12.071-0.9942-16.576-29.563 1.8875-57.662 1.6492-87.225 0.4216-6.1349 7.3089-1.5937 6.9747-1.038 16.154z" fill="url(#ab)"/>
   <path d="m-1596.6-1186.6c29.89 1.7349 59.76 1.1336 89.34-1.0389-0.167-3.5774 7.9738-11.032-1.0768-15.537-29.563 1.8875-57.595 1.7225-87.158 0.4949-6.1349 7.2051-1.4125 8.4596-1.3524 13.172z" fill="url(#aa)"/>
   <path d="m-1599.1-737.72c-1.0375 4.423-4.6156 5.5311 0.1283 12.927l91.334 0.41553c5.898-5.2259 1.2277-8.6148 1.1514-13.822z" fill="url(#z)"/>
   <path d="m-1599.8-723.43-2.4158 446.73c0.076 7.7427-1.4742 7.6754-0.049 15.895l96.081 0.41629c7.1263-6.4865 0.2468-6.4229 1.1497-19.735l-0.869-443.3c-0.089-5.1451 8.4751-12.094-1.0458-16.606-31.1 1.891-60.646 1.6392-91.746 0.4094-6.4538 7.3224-2.122 8.027-1.1047 16.197z" fill="url(#y)"/>
   <path d="m-1599.8-723.43c31.444 1.7381 62.866 1.1357 93.983-1.0408-0.1757-3.584 8.3882-11.053-1.1327-15.566-31.1 1.891-60.646 1.6392-91.746 0.4094-6.953 6.7784-1.2289 11.091-0.9993 16.032z" fill="url(#x)"/>
   <path d="m-1602.4-273.76c-1.0914 4.4311-0.3305 4.241 0.1349 12.951l96.081 0.41629c6.2045-5.2355 1.2915-8.6306 1.2112-13.848z" fill="url(#w)"/>
   <path d="m-1602.3-259.78-2.4975 445.91c0.079 7.7285-0.6944 6.9171-0.051 15.866l99.329 0.41553c7.3672-6.4746 0.2552-6.4111 1.1887-19.699l-0.8984-442.49c-0.092-5.1357 8.7616-12.071-1.0813-16.576-32.151 1.8876-63.57 1.7958-95.721 0.56824-6.672 7.309-0.8728 6.8281-0.2685 16.008z" fill="url(#v)"/>
   <path d="m-1602.3-259.78c32.507 1.7349 64.991 1.1336 97.16-1.0389-0.1816-3.5774 8.6718-11.033-1.1711-15.537-32.151 1.8876-63.503 1.6492-95.654 0.42161-6.672 7.2051-0.6699 8.533-0.6046 13.246z" fill="url(#u)"/>
   <path d="m-1605 189.06c-1.1284 4.423-2.1908 5.0517 0.1394 12.927l99.329 0.41553c6.4143-5.2259 1.3352-8.6148 1.2522-13.822z" fill="url(#t)"/>
   <path d="m-1605.3 204.17-2.6169 445.09c0.082 7.7143-6.3912 7.6472-0.054 15.836l104.08 0.41476c7.7193-6.4627 0.2674-6.3993 1.2454-19.663l-0.9413-441.67c-0.096-5.1262 9.1804-12.049-1.1329-16.545-33.688 1.8841-66.31 1.6466-99.998 0.42123-6.9445 7.2919 0.9924 6.788-0.5792 16.124z" fill="url(#s)"/>
   <path d="m-1605.3 204.17c34.06 1.7317 68.098 1.1315 101.8-1.037-0.1903-3.5708 9.0863-11.012-1.227-15.509-33.688 1.8841-66.443 1.7932-100.13 0.56788-6.9909 7.1918-0.7969 8.3702-0.7285 13.074z" fill="url(#r)"/>
   <path d="m-1608.1 652.19c-1.1823 4.4149-5.2596 5.5209 0.1461 12.904l104.08 0.41476c6.7208-5.2163 1.399-8.599 1.312-13.797z" fill="url(#q)"/>
   <g transform="matrix(.54445 .83879 -.83879 .54445 -1353.7 1036.8)">
    <path d="m-1993.8-1049.6c-19.79 6.349-38.191 8.9271-64.022 31.67-23.438 26.401-49.798 51.967-67.427 80.027l93.308-72.876c13.352-13.579 25.653-26.107 38.141-38.822z" fill="url(#e)"/>
    <path d="m-1989.4-1022.7c-64.902 65.732-76.72 152.09-87.519 192.75l50.741-109.31c14.546-25.295 30.886-48.617 36.778-83.433z" fill="url(#d)"/>
    <path d="m-1969.6-1029.9 44.982 106.14 6.6614 7.9898c7.182 61.955 0.6565 89.496 2.1617 149.83l-52.784-179.12c-11.326-35.134-7.6277-59.488-1.0216-84.832z" fill="url(#c)"/>
    <path d="m-1979.5-1053.3 54.487 129.75c103.52 117.24 57.862 64.247 86.497 96.033l-40.865-105.91c-30.174-48.367-117.97-159.84-100.12-119.87z" fill="url(#b)"/>
    <path d="m-1949.2-1047.9c95.517-17.912 163.16-3.6191 217.95 25.54-69.538-13.071-123.38-20.878-217.95-25.54z" fill="url(#a)"/>
   </g>
   <g transform="matrix(.55949 -.06481 .07186 .50461 -326.61 -1248.6)">
    <path d="m-1993.8-1049.6c-19.79 6.349-38.191 8.9271-64.022 31.67-23.438 26.401-49.798 51.967-67.427 80.027l93.308-72.876c13.352-13.579 25.653-26.107 38.141-38.822z" fill="url(#e)"/>
    <path d="m-1989.4-1022.7c-64.902 65.732-76.72 152.09-87.519 192.75l50.741-109.31c14.546-25.295 30.886-48.617 36.778-83.433z" fill="url(#d)"/>
    <path d="m-1969.6-1029.9 44.982 106.14 6.6614 7.9898c7.182 61.955 0.6565 89.496 2.1617 149.83l-52.784-179.12c-11.326-35.134-7.6277-59.488-1.0216-84.832z" fill="url(#c)"/>
    <path d="m-1979.5-1053.3 54.487 129.75c103.52 117.24 57.862 64.247 86.497 96.033l-40.865-105.91c-30.174-48.367-117.97-159.84-100.12-119.87z" fill="url(#b)"/>
    <path d="m-1949.2-1047.9c95.517-17.912 163.16-3.6191 217.95 25.54-69.538-13.071-123.38-20.878-217.95-25.54z" fill="url(#a)"/>
   </g>
   <g transform="matrix(-.67879 -.13119 -.08718 1.0214 -3024.5 94.296)">
    <path d="m-1993.8-1049.6c-19.79 6.349-38.191 8.9271-64.022 31.67-23.438 26.401-49.798 51.967-67.427 80.027l93.308-72.876c13.352-13.579 25.653-26.107 38.141-38.822z" fill="url(#e)"/>
    <path d="m-1989.4-1022.7c-64.902 65.732-76.72 152.09-87.519 192.75l50.741-109.31c14.546-25.295 30.886-48.617 36.778-83.433z" fill="url(#d)"/>
    <path d="m-1969.6-1029.9 44.982 106.14 6.6614 7.9898c7.182 61.955 0.6565 89.496 2.1617 149.83l-52.784-179.12c-11.326-35.134-7.6277-59.488-1.0216-84.832z" fill="url(#c)"/>
    <path d="m-1979.5-1053.3 54.487 129.75c103.52 117.24 57.862 64.247 86.497 96.033l-40.865-105.91c-30.174-48.367-117.97-159.84-100.12-119.87z" fill="url(#b)"/>
    <path d="m-1949.2-1047.9c95.517-17.912 163.16-3.6191 217.95 25.54-69.538-13.071-123.38-20.878-217.95-25.54z" fill="url(#a)"/>
   </g>
   <g transform="matrix(-.79809 1.2773 1.2296 .82906 -1830.1 3144.2)">
    <path d="m-1993.8-1049.6c-19.79 6.349-38.191 8.9271-64.022 31.67-23.438 26.401-49.798 51.967-67.427 80.027l93.308-72.876c13.352-13.579 25.653-26.107 38.141-38.822z" fill="url(#e)"/>
    <path d="m-1989.4-1022.7c-64.902 65.732-76.72 152.09-87.519 192.75l50.741-109.31c14.546-25.295 30.886-48.617 36.778-83.433z" fill="url(#d)"/>
    <path d="m-1969.6-1029.9 44.982 106.14 6.6614 7.9898c7.182 61.955 0.6565 89.496 2.1617 149.83l-52.784-179.12c-11.326-35.134-7.6277-59.488-1.0216-84.832z" fill="url(#c)"/>
    <path d="m-1979.5-1053.3 54.487 129.75c103.52 117.24 57.862 64.247 86.497 96.033l-40.865-105.91c-30.174-48.367-117.97-159.84-100.12-119.87z" fill="url(#b)"/>
    <path d="m-1949.2-1047.9c95.517-17.912 163.16-3.6191 217.95 25.54-69.538-13.071-123.38-20.878-217.95-25.54z" fill="url(#a)"/>
   </g>
  </g>
  <g transform="matrix(1.0386 .067 -.07479 1.1594 1275.9 -32.384)">
   <g transform="translate(432.3 -1069.1)">
    <path d="m-1993.8-1049.6c-19.79 6.349-38.191 8.9271-64.022 31.67-23.438 26.401-49.798 51.967-67.427 80.027l93.308-72.876c13.352-13.579 25.653-26.107 38.141-38.822z" fill="url(#e)"/>
    <path d="m-1989.4-1022.7c-64.902 65.732-76.72 152.09-87.519 192.75l50.741-109.31c14.546-25.295 30.886-48.617 36.778-83.433z" fill="url(#d)"/>
    <path d="m-1969.6-1029.9 44.982 106.14 6.6614 7.9898c7.182 61.955 0.6565 89.496 2.1617 149.83l-52.784-179.12c-11.326-35.134-7.6277-59.488-1.0216-84.832z" fill="url(#c)"/>
    <path d="m-1979.5-1053.3 54.487 129.75c103.52 117.24 57.862 64.247 86.497 96.033l-40.865-105.91c-30.174-48.367-117.97-159.84-100.12-119.87z" fill="url(#b)"/>
    <path d="m-1949.2-1047.9c95.517-17.912 163.16-3.6191 217.95 25.54-69.538-13.071-123.38-20.878-217.95-25.54z" fill="url(#a)"/>
   </g>
   <path d="m-1589.5-2114.7-2.0358 447.34c0.064 7.7534-4.9719 7.686-0.042 15.917l80.965 0.4168c6.0051-6.4954 0.208-6.4317 0.9689-19.762l-0.7323-443.91c-0.075-5.1521 7.1418-12.11-0.8813-16.629-26.207 1.8936-52.414 1.4338-78.621 0.2023-5.4384 7.3325-0.1146 7.2178 0.378 16.427z" fill="url(#ah)"/>
   <path d="m-1589.5-2114.7c26.497 1.7405 52.976 1.1373 79.197-1.0421-0.148-3.589 7.0686-11.068-0.9545-15.587-26.207 1.8936-52.414 1.4338-78.621 0.2023-5.4384 7.2283 0.1051 8.7811 0.1583 13.509z" fill="url(#ag)"/>
   <path d="m-1591.7-1664.4c-0.9197 4.4373-4.0917 5.5489 0.1137 12.969l80.965 0.4168c5.2284-5.2426 1.0883-8.6425 1.0207-13.867z" fill="url(#af)"/>
   <path d="m-1593.4-1649.9-2.1772 446.38c0.069 7.7369-5.3172 7.6696-0.044 15.883l86.586 0.4159c6.4221-6.4815 0.2225-6.418 1.0362-19.72l-0.7831-442.96c-0.08-5.1411 7.6376-12.084-0.9426-16.594-28.026 1.8895-53.657 1.559-81.683 0.3301-5.8161 7.3168-2.5189 7.0741-1.9921 16.264z" fill="url(#ae)"/>
   <path d="m-1593.4-1649.9c28.337 1.7367 56.654 1.1348 84.696-1.04-0.1583-3.5813 7.5593-11.044-1.0209-15.554-28.026 1.8895-53.757 1.5407-81.783 0.3118-5.8161 7.2128-2.1842 8.6523-2.1272 13.37z" fill="url(#ad)"/>
   <path d="m-1595.7-1200.6c-0.9836 4.4278-4.3758 5.5371 0.1216 12.941l86.586 0.4159c5.5915-5.2314 1.1639-8.624 1.0916-13.837z" fill="url(#ac)"/>
   <path d="m-1596.6-1186.6-2.2965 445.91c0.072 7.7285-3.726 6.4689 1.8357 14.673l89.451 1.608c6.7742-6.4746 0.2347-6.4111 1.093-19.699l-0.8261-442.49c-0.084-5.1357 8.0564-12.071-0.9942-16.576-29.563 1.8875-57.662 1.6492-87.225 0.4216-6.1349 7.3089-1.5937 6.9747-1.038 16.154z" fill="url(#ab)"/>
   <path d="m-1596.6-1186.6c29.89 1.7349 59.76 1.1336 89.34-1.0389-0.167-3.5774 7.9738-11.032-1.0768-15.537-29.563 1.8875-57.595 1.7225-87.158 0.4949-6.1349 7.2051-1.4125 8.4596-1.3524 13.172z" fill="url(#aa)"/>
   <path d="m-1599.1-737.72c-1.0375 4.423-4.6156 5.5311 0.1283 12.927l91.334 0.41553c5.898-5.2259 1.2277-8.6148 1.1514-13.822z" fill="url(#z)"/>
   <path d="m-1599.8-723.43-2.4158 446.73c0.076 7.7427-1.4742 7.6754-0.049 15.895l96.081 0.41629c7.1263-6.4865 0.2468-6.4229 1.1497-19.735l-0.869-443.3c-0.089-5.1451 8.4751-12.094-1.0458-16.606-31.1 1.891-60.646 1.6392-91.746 0.4094-6.4538 7.3224-2.122 8.027-1.1047 16.197z" fill="url(#y)"/>
   <path d="m-1599.8-723.43c31.444 1.7381 62.866 1.1357 93.983-1.0408-0.1757-3.584 8.3882-11.053-1.1327-15.566-31.1 1.891-60.646 1.6392-91.746 0.4094-6.953 6.7784-1.2289 11.091-0.9993 16.032z" fill="url(#x)"/>
   <path d="m-1602.4-273.76c-1.0914 4.4311-0.3305 4.241 0.1349 12.951l96.081 0.41629c6.2045-5.2355 1.2915-8.6306 1.2112-13.848z" fill="url(#w)"/>
   <path d="m-1602.3-259.78-2.4975 445.91c0.079 7.7285-0.6944 6.9171-0.051 15.866l99.329 0.41553c7.3672-6.4746 0.2552-6.4111 1.1887-19.699l-0.8984-442.49c-0.092-5.1357 8.7616-12.071-1.0813-16.576-32.151 1.8876-63.57 1.7958-95.721 0.56824-6.672 7.309-0.8728 6.8281-0.2685 16.008z" fill="url(#v)"/>
   <path d="m-1602.3-259.78c32.507 1.7349 64.991 1.1336 97.16-1.0389-0.1816-3.5774 8.6718-11.033-1.1711-15.537-32.151 1.8876-63.503 1.6492-95.654 0.42161-6.672 7.2051-0.6699 8.533-0.6046 13.246z" fill="url(#u)"/>
   <path d="m-1605 189.06c-1.1284 4.423-2.1908 5.0517 0.1394 12.927l99.329 0.41553c6.4143-5.2259 1.3352-8.6148 1.2522-13.822z" fill="url(#t)"/>
   <path d="m-1605.3 204.17-2.6169 445.09c0.082 7.7143-6.3912 7.6472-0.054 15.836l104.08 0.41476c7.7193-6.4627 0.2674-6.3993 1.2454-19.663l-0.9413-441.67c-0.096-5.1262 9.1804-12.049-1.1329-16.545-33.688 1.8841-66.31 1.6466-99.998 0.42123-6.9445 7.2919 0.9924 6.788-0.5792 16.124z" fill="url(#s)"/>
   <path d="m-1605.3 204.17c34.06 1.7317 68.098 1.1315 101.8-1.037-0.1903-3.5708 9.0863-11.012-1.227-15.509-33.688 1.8841-66.443 1.7932-100.13 0.56788-6.9909 7.1918-0.7969 8.3702-0.7285 13.074z" fill="url(#r)"/>
   <path d="m-1608.1 652.19c-1.1823 4.4149-5.2596 5.5209 0.1461 12.904l104.08 0.41476c6.7208-5.2163 1.399-8.599 1.312-13.797z" fill="url(#q)"/>
   <g transform="matrix(.54445 .83879 -.83879 .54445 -1353.7 1036.8)">
    <path d="m-1993.8-1049.6c-19.79 6.349-38.191 8.9271-64.022 31.67-23.438 26.401-49.798 51.967-67.427 80.027l93.308-72.876c13.352-13.579 25.653-26.107 38.141-38.822z" fill="url(#e)"/>
    <path d="m-1989.4-1022.7c-64.902 65.732-76.72 152.09-87.519 192.75l50.741-109.31c14.546-25.295 30.886-48.617 36.778-83.433z" fill="url(#d)"/>
    <path d="m-1969.6-1029.9 44.982 106.14 6.6614 7.9898c7.182 61.955 0.6565 89.496 2.1617 149.83l-52.784-179.12c-11.326-35.134-7.6277-59.488-1.0216-84.832z" fill="url(#c)"/>
    <path d="m-1979.5-1053.3 54.487 129.75c103.52 117.24 57.862 64.247 86.497 96.033l-40.865-105.91c-30.174-48.367-117.97-159.84-100.12-119.87z" fill="url(#b)"/>
    <path d="m-1949.2-1047.9c95.517-17.912 163.16-3.6191 217.95 25.54-69.538-13.071-123.38-20.878-217.95-25.54z" fill="url(#a)"/>
   </g>
   <g transform="matrix(.55949 -.06481 .07186 .50461 -326.61 -1248.6)">
    <path d="m-1993.8-1049.6c-19.79 6.349-38.191 8.9271-64.022 31.67-23.438 26.401-49.798 51.967-67.427 80.027l93.308-72.876c13.352-13.579 25.653-26.107 38.141-38.822z" fill="url(#e)"/>
    <path d="m-1989.4-1022.7c-64.902 65.732-76.72 152.09-87.519 192.75l50.741-109.31c14.546-25.295 30.886-48.617 36.778-83.433z" fill="url(#d)"/>
    <path d="m-1969.6-1029.9 44.982 106.14 6.6614 7.9898c7.182 61.955 0.6565 89.496 2.1617 149.83l-52.784-179.12c-11.326-35.134-7.6277-59.488-1.0216-84.832z" fill="url(#c)"/>
    <path d="m-1979.5-1053.3 54.487 129.75c103.52 117.24 57.862 64.247 86.497 96.033l-40.865-105.91c-30.174-48.367-117.97-159.84-100.12-119.87z" fill="url(#b)"/>
    <path d="m-1949.2-1047.9c95.517-17.912 163.16-3.6191 217.95 25.54-69.538-13.071-123.38-20.878-217.95-25.54z" fill="url(#a)"/>
   </g>
   <g transform="matrix(-.67879 -.13119 -.08718 1.0214 -3024.5 94.296)">
    <path d="m-1993.8-1049.6c-19.79 6.349-38.191 8.9271-64.022 31.67-23.438 26.401-49.798 51.967-67.427 80.027l93.308-72.876c13.352-13.579 25.653-26.107 38.141-38.822z" fill="url(#e)"/>
    <path d="m-1989.4-1022.7c-64.902 65.732-76.72 152.09-87.519 192.75l50.741-109.31c14.546-25.295 30.886-48.617 36.778-83.433z" fill="url(#d)"/>
    <path d="m-1969.6-1029.9 44.982 106.14 6.6614 7.9898c7.182 61.955 0.6565 89.496 2.1617 149.83l-52.784-179.12c-11.326-35.134-7.6277-59.488-1.0216-84.832z" fill="url(#c)"/>
    <path d="m-1979.5-1053.3 54.487 129.75c103.52 117.24 57.862 64.247 86.497 96.033l-40.865-105.91c-30.174-48.367-117.97-159.84-100.12-119.87z" fill="url(#b)"/>
    <path d="m-1949.2-1047.9c95.517-17.912 163.16-3.6191 217.95 25.54-69.538-13.071-123.38-20.878-217.95-25.54z" fill="url(#a)"/>
   </g>
   <g transform="matrix(-.79809 1.2773 1.2296 .82906 -1830.1 3144.2)">
    <path d="m-1993.8-1049.6c-19.79 6.349-38.191 8.9271-64.022 31.67-23.438 26.401-49.798 51.967-67.427 80.027l93.308-72.876c13.352-13.579 25.653-26.107 38.141-38.822z" fill="url(#e)"/>
    <path d="m-1989.4-1022.7c-64.902 65.732-76.72 152.09-87.519 192.75l50.741-109.31c14.546-25.295 30.886-48.617 36.778-83.433z" fill="url(#d)"/>
    <path d="m-1969.6-1029.9 44.982 106.14 6.6614 7.9898c7.182 61.955 0.6565 89.496 2.1617 149.83l-52.784-179.12c-11.326-35.134-7.6277-59.488-1.0216-84.832z" fill="url(#c)"/>
    <path d="m-1979.5-1053.3 54.487 129.75c103.52 117.24 57.862 64.247 86.497 96.033l-40.865-105.91c-30.174-48.367-117.97-159.84-100.12-119.87z" fill="url(#b)"/>
    <path d="m-1949.2-1047.9c95.517-17.912 163.16-3.6191 217.95 25.54-69.538-13.071-123.38-20.878-217.95-25.54z" fill="url(#a)"/>
   </g>
  </g>
  <path d="m-652.04-2613-2.1187 519.72c0.0666 9.008-5.1744 8.9297-0.0437 18.492l84.262 0.4843c6.2497-7.5464 0.21648-7.4724 1.0084-22.96l-0.76212-515.74c-0.078-5.9857 7.4327-14.07-0.91719-19.32-27.274 2.2-54.548 1.6658-81.823 0.235-5.6599 8.519-0.11927 8.3857 0.3934 19.085z" fill="url(#aj)"/>
  <path d="m-652.04-2613c27.576 2.0222 55.133 1.3213 82.423-1.2107-0.15403-4.1697 7.3565-12.859-0.99338-18.109-27.274 2.2-54.548 1.6658-81.823 0.235-5.6599 8.3979 0.10938 10.202 0.16474 15.695z" fill="url(#ak)"/>
  <path d="m-654.32-2089.9c-0.95716 5.1553-4.2583 6.4467 0.11833 15.067l84.262 0.4843c5.4413-6.0909 1.1326-10.041 1.0623-16.111z" fill="url(#al)"/>
  <path d="m-656.12-2073.1-2.2659 518.61c0.0718 8.9888-5.5337 8.9106-0.0458 18.452l90.113 0.4832c6.6836-7.5302 0.23156-7.4565 1.0784-22.911l-0.81499-514.64c-0.0833-5.9729 7.9486-14.04-0.98099-19.278-29.168 2.1952-55.842 1.8112-85.01 0.3835-6.053 8.5007-2.6215 8.2187-2.0732 18.895z" fill="url(#am)"/>
  <path d="m-656.12-2073.1c29.491 2.0178 58.961 1.3185 88.146-1.2082-0.16474-4.1608 7.8672-12.832-1.0625-18.07-29.168 2.1952-55.946 1.79-85.114 0.3622-6.053 8.3799-2.2732 10.052-2.2138 15.533z" fill="url(#an)"/>
  <path d="m-658.56-1551c-1.0237 5.1443-4.554 6.4331 0.12655 15.035l90.113 0.4832c5.8192-6.0779 1.2113-10.019 1.136-16.076z" fill="url(#ao)"/>
  <path d="m-659.46-1534.7-2.39 518.06c0.0749 8.9791-3.8777 7.5156 1.9105 17.047l93.094 1.8682c7.0501-7.5223 0.24426-7.4485 1.1375-22.886l-0.85974-514.09c-0.0874-5.9667 8.3845-14.025-1.0347-19.258-30.767 2.193-60.01 1.9161-90.777 0.4899-6.3848 8.4915-1.6586 8.1032-1.0803 18.768z" fill="url(#ap)"/>
  <path d="m-659.46-1534.7c31.108 2.0156 62.194 1.317 92.978-1.207-0.1738-4.1563 8.2985-12.818-1.1206-18.051-30.767 2.193-59.941 2.0013-90.708 0.575-6.3848 8.371-1.47 9.8285-1.4075 15.304z" fill="url(#aq)"/>
  <path d="m-662.03-1013.3c-1.0798 5.1387-4.8036 6.426 0.13352 15.019l95.053 0.48277c6.1382-6.0714 1.2777-10.009 1.1983-16.059z" fill="url(#ar)"/>
  <path d="m-662.81-996.66-2.5142 519.01c0.0791 8.9956-1.5342 8.9173-0.051 18.467l99.994 0.48365c7.4165-7.5361 0.25685-7.4622 1.1965-22.928l-0.90439-515.03c-0.0926-5.9776 8.8203-14.05-1.0884-19.293-32.366 2.197-63.116 1.9045-95.482 0.4757-6.7166 8.5072-2.2084 9.3258-1.1497 18.818z" fill="url(#as)"/>
  <path d="m-662.81-996.66c32.725 2.0193 65.427 1.3194 97.811-1.2092-0.18285-4.1639 8.7298-12.841-1.1788-18.084-32.366 2.197-63.116 1.9045-95.482 0.4757-7.2362 7.8751-1.279 12.886-1.04 18.627z" fill="url(#at)"/>
  <path d="m-665.51-474.23c-1.1358 5.1481-0.34396 4.9272 0.14039 15.047l99.994 0.48365c6.4572-6.0826 1.3441-10.027 1.2605-16.089z" fill="url(#au)"/>
  <path d="m-665.4-457.99-2.5992 518.06c0.0822 8.9791-0.72268 8.0363-0.0531 18.433l103.37 0.48277c7.6672-7.5223 0.26559-7.4485 1.2371-22.886l-0.93499-514.09c-0.0957-5.9666 9.1184-14.025-1.1253-19.258-33.46 2.193-66.159 2.0864-99.619 0.66019-6.9437 8.4916-0.90834 7.9329-0.27943 18.598z" fill="url(#av)"/>
  <path d="m-665.4-457.99c33.831 2.0156 67.638 1.317 101.12-1.207-0.189-4.1563 9.025-12.818-1.2188-18.051-33.46 2.193-66.09 1.916-99.55 0.48983-6.9437 8.3709-0.69718 9.9136-0.62922 15.389z" fill="url(#aw)"/>
  <path d="m-668.2 63.485c-1.1744 5.1387-2.28 5.8691 0.14508 15.019l103.37 0.48277c6.6755-6.0715 1.3896-10.009 1.3032-16.059z" fill="url(#ax)"/>
  <path d="m-668.47 81.031-2.7235 517.1c0.0853 8.9626-6.6515 8.8846-0.0562 18.399l108.31 0.48188c8.0337-7.5084 0.27829-7.4348 1.2961-22.844l-0.97963-513.14c-0.0999-5.9557 9.5543-13.999-1.179-19.223-35.06 2.1889-69.011 1.913-104.07 0.48939-7.2273 8.4718 1.0328 7.8864-0.60279 18.733z" fill="url(#ay)"/>
  <path d="m-668.47 81.031c35.448 2.0119 70.871 1.3146 105.95-1.2047-0.19805-4.1486 9.4564-12.794-1.277-18.018-35.06 2.1889-69.149 2.0834-104.21 0.65977-7.2756 8.3555-0.82935 9.7246-0.75817 15.19z" fill="url(#az)"/>
  <path d="m-671.4 601.54c-1.2304 5.1292-5.4738 6.4143 0.15205 14.991l108.31 0.48188c6.9945-6.0603 1.456-9.9904 1.3654-16.03z" fill="url(#ba)"/>
  <g transform="matrix(.56662 .97452 -.87296 .63254 -406.7 1048.4)">
   <path d="m-1993.8-1049.6c-19.79 6.349-38.191 8.9271-64.022 31.67-23.438 26.401-49.798 51.967-67.427 80.027l93.308-72.876c13.352-13.579 25.653-26.107 38.141-38.822z" fill="url(#e)"/>
   <path d="m-1989.4-1022.7c-64.902 65.732-76.72 152.09-87.519 192.75l50.741-109.31c14.546-25.295 30.886-48.617 36.778-83.433z" fill="url(#d)"/>
   <path d="m-1969.6-1029.9 44.982 106.14 6.6614 7.9898c7.182 61.955 0.6565 89.496 2.1617 149.83l-52.784-179.12c-11.326-35.134-7.6277-59.488-1.0216-84.832z" fill="url(#c)"/>
   <path d="m-1979.5-1053.3 54.487 129.75c103.52 117.24 57.862 64.247 86.497 96.033l-40.865-105.91c-30.174-48.367-117.97-159.84-100.12-119.87z" fill="url(#b)"/>
   <path d="m-1949.2-1047.9c95.517-17.912 163.16-3.6191 217.95 25.54-69.538-13.071-123.38-20.878-217.95-25.54z" fill="url(#a)"/>
  </g>
  <g transform="matrix(.58227 -.0753 .07479 .58626 662.26 -1606.9)">
   <path d="m-1993.8-1049.6c-19.79 6.349-38.191 8.9271-64.022 31.67-23.438 26.401-49.798 51.967-67.427 80.027l93.308-72.876c13.352-13.579 25.653-26.107 38.141-38.822z" fill="url(#e)"/>
   <path d="m-1989.4-1022.7c-64.902 65.732-76.72 152.09-87.519 192.75l50.741-109.31c14.546-25.295 30.886-48.617 36.778-83.433z" fill="url(#d)"/>
   <path d="m-1969.6-1029.9 44.982 106.14 6.6614 7.9898c7.182 61.955 0.6565 89.496 2.1617 149.83l-52.784-179.12c-11.326-35.134-7.6277-59.488-1.0216-84.832z" fill="url(#c)"/>
   <path d="m-1979.5-1053.3 54.487 129.75c103.52 117.24 57.862 64.247 86.497 96.033l-40.865-105.91c-30.174-48.367-117.97-159.84-100.12-119.87z" fill="url(#b)"/>
   <path d="m-1949.2-1047.9c95.517-17.912 163.16-3.6191 217.95 25.54-69.538-13.071-123.38-20.878-217.95-25.54z" fill="url(#a)"/>
  </g>
  <g transform="matrix(-.70644 -.15242 -.09073 1.1867 -2145.5 -46.617)">
   <path d="m-1993.8-1049.6c-19.79 6.349-38.191 8.9271-64.022 31.67-23.438 26.401-49.798 51.967-67.427 80.027l93.308-72.876c13.352-13.579 25.653-26.107 38.141-38.822z" fill="url(#e)"/>
   <path d="m-1989.4-1022.7c-64.902 65.732-76.72 152.09-87.519 192.75l50.741-109.31c14.546-25.295 30.886-48.617 36.778-83.433z" fill="url(#d)"/>
   <path d="m-1969.6-1029.9 44.982 106.14 6.6614 7.9898c7.182 61.955 0.6565 89.496 2.1617 149.83l-52.784-179.12c-11.326-35.134-7.6277-59.488-1.0216-84.832z" fill="url(#c)"/>
   <path d="m-1979.5-1053.3 54.487 129.75c103.52 117.24 57.862 64.247 86.497 96.033l-40.865-105.91c-30.174-48.367-117.97-159.84-100.12-119.87z" fill="url(#b)"/>
   <path d="m-1949.2-1047.9c95.517-17.912 163.16-3.6191 217.95 25.54-69.538-13.071-123.38-20.878-217.95-25.54z" fill="url(#a)"/>
  </g>
  <g transform="matrix(-.83059 1.484 1.2796 .96321 -902.5 3496.8)">
   <path d="m-1993.8-1049.6c-19.79 6.349-38.191 8.9271-64.022 31.67-23.438 26.401-49.798 51.967-67.427 80.027l93.308-72.876c13.352-13.579 25.653-26.107 38.141-38.822z" fill="url(#e)"/>
   <path d="m-1989.4-1022.7c-64.902 65.732-76.72 152.09-87.519 192.75l50.741-109.31c14.546-25.295 30.886-48.617 36.778-83.433z" fill="url(#d)"/>
   <path d="m-1969.6-1029.9 44.982 106.14 6.6614 7.9898c7.182 61.955 0.6565 89.496 2.1617 149.83l-52.784-179.12c-11.326-35.134-7.6277-59.488-1.0216-84.832z" fill="url(#c)"/>
   <path d="m-1979.5-1053.3 54.487 129.75c103.52 117.24 57.862 64.247 86.497 96.033l-40.865-105.91c-30.174-48.367-117.97-159.84-100.12-119.87z" fill="url(#b)"/>
   <path d="m-1949.2-1047.9c95.517-17.912 163.16-3.6191 217.95 25.54-69.538-13.071-123.38-20.878-217.95-25.54z" fill="url(#a)"/>
  </g>
  <g transform="matrix(.25384 .15683 -.15683 .25384 -252.64 -638.96)">
   <path d="m-2147.5-762.88c-58.704 18.833-113.29 26.481-189.91 93.944-69.523 78.314-147.72 154.15-200.01 237.39l276.78-216.17c39.607-40.28 76.094-77.441 113.14-115.16z" fill="url(#p)"/>
   <path d="m-2134.3-683.08c-192.52 194.98-227.57 451.16-259.61 571.75l150.51-324.26c43.15-75.033 91.619-144.21 109.1-247.49z" fill="url(#o)"/>
   <path d="m-2075.7-734.6c63.988 74.217 103.82 180.79 144.45 275.77 21.304 183.78 10.688 358.43 15.152 537.4l-156.57-531.34c-33.597-104.22-5.2584-191.94-3.0304-281.83z" fill="url(#n)"/>
   <path d="m-2105-773.99 161.62 384.87c307.08 347.78 171.64 190.58 256.58 284.86l-121.22-314.16c-89.507-143.47-349.94-474.14-296.98-355.57z" fill="url(#m)"/>
   <path d="m-2015.1-757.83c283.33-53.132 484-10.735 646.5 75.761-206.27-38.773-365.98-61.932-646.5-75.761z" fill="url(#l)"/>
  </g>
  <g transform="matrix(-.96925 .24609 .24609 .96925 -165.94 -305.69)">
   <g transform="matrix(.77794 0 0 1.0051 64.372 -1997.9)">
    <path d="m222.49 245-2.4821 383.25c0.0782 6.6426-6.0619 6.5848-0.0508 13.636l98.714 0.35714c7.3216-5.5648 0.25363-5.5103 1.1813-16.931l-0.89285-380.31c-0.0912-4.414 8.7074-10.375-1.0745-14.247-31.952 1.6223-63.904 1.2284-95.856 0.17331-6.6307 6.2819-0.13978 6.1837 0.46084 14.073z" fill="url(#h)"/>
    <path d="m222.49 245c32.306 1.4911 64.589 0.9743 96.559-0.89288-0.18049-3.0747 8.6181-9.4823-1.1638-13.354-31.952 1.6223-63.904 1.2284-95.856 0.17331-6.6307 6.1926 0.12808 7.523 0.19298 11.573z" fill="url(#g)"/>
    <path d="m219.81 630.77c-1.1214 3.8015-4.9886 4.7539 0.1386 11.111l98.714 0.35714c6.3746-4.4916 1.3269-7.4043 1.2444-11.88z" fill="url(#f)"/>
   </g>
   <g transform="matrix(.83195 0 0 1.0029 48.64 -1597.2)">
    <path d="m222.49 245-2.4821 383.25c0.0782 6.6426-6.0619 6.5848-0.0508 13.636l98.714 0.35714c7.3216-5.5648 0.25363-5.5103 1.1813-16.931l-0.89285-380.31c-0.0912-4.414 8.7074-10.375-1.0745-14.247-31.952 1.6223-61.172 1.3386-93.124 0.28347-6.6307 6.2819-2.8717 6.0736-2.2711 13.963z" fill="url(#h)"/>
    <path d="m222.49 245c32.306 1.4911 64.589 0.9743 96.559-0.89288-0.18049-3.0747 8.6181-9.4823-1.1638-13.354-31.952 1.6223-61.286 1.3228-93.238 0.26774-6.6307 6.1926-2.49 7.4286-2.4251 11.479z" fill="url(#g)"/>
    <path d="m219.81 630.77c-1.1214 3.8015-4.9886 4.7539 0.1386 11.111l98.714 0.35714c6.3746-4.4916 1.3269-7.4043 1.2444-11.88z" fill="url(#f)"/>
   </g>
   <g transform="matrix(.87757 0 0 1.0018 35.445 -1198)">
    <path d="m222.49 245-2.4821 383.25c0.0782 6.6426-4.0271 5.5599 1.984 12.611l96.679 1.382c7.3216-5.5648 0.25363-5.5103 1.1813-16.931l-0.89285-380.31c-0.0912-4.414 8.7074-10.375-1.0745-14.247-31.952 1.6223-62.321 1.4174-94.273 0.36237-6.6307 6.2819-1.7225 5.9946-1.1219 13.884z" fill="url(#h)"/>
    <path d="m222.49 245c32.306 1.4911 64.589 0.9743 96.559-0.89288-0.18049-3.0747 8.6181-9.4823-1.1638-13.354-31.952 1.6223-62.249 1.4805-94.201 0.42538-6.6307 6.1926-1.5266 7.2709-1.4617 11.321z" fill="url(#g)"/>
    <path d="m219.81 630.77c-1.1214 3.8015-4.9886 4.7539 0.1386 11.111l98.714 0.35714c6.3746-4.4916 1.3269-7.4043 1.2444-11.88z" fill="url(#f)"/>
   </g>
   <g transform="matrix(.92318 0 0 1.0037 22.25 -799.63)">
    <path d="m222.49 245-2.4821 383.25c0.0782 6.6426-1.5146 6.5848-0.0508 13.636l98.714 0.35714c7.3216-5.5648 0.25363-5.5103 1.1813-16.931l-0.89285-380.31c-0.0912-4.414 8.7074-10.375-1.0745-14.247-31.952 1.6223-62.308 1.4063-94.26 0.35123-6.6307 6.2819-2.1801 6.8864-1.135 13.896z" fill="url(#h)"/>
    <path d="m222.49 245c32.306 1.4911 64.589 0.9743 96.559-0.89288-0.18049-3.0747 8.6181-9.4823-1.1638-13.354-31.952 1.6223-62.308 1.4063-94.26 0.35123-7.1436 5.8152-1.2626 9.5152-1.0267 13.754z" fill="url(#g)"/>
    <path d="m219.81 630.77c-1.1214 3.8015-0.33957 3.6384 0.1386 11.111l98.714 0.35714c6.3746-4.4916 1.3269-7.4043 1.2444-11.88z" fill="url(#f)"/>
   </g>
   <g transform="matrix(.95439 0 0 1.0018 12.943 -399.94)">
    <path d="m222.49 245-2.4821 383.25c0.0782 6.6426-0.69003 5.9451-0.0508 13.636l98.714 0.35714c7.3216-5.5648 0.25363-5.5103 1.1813-16.931l-0.89285-380.31c-0.0912-4.414 8.7074-10.375-1.0745-14.247-31.952 1.6223-63.176 1.5435-95.128 0.4884-6.6307 6.2819-0.86745 5.8686-0.26683 13.758z" fill="url(#h)"/>
    <path d="m222.49 245c32.306 1.4911 64.589 0.9743 96.559-0.89288-0.18049-3.0747 8.6181-9.4823-1.1638-13.354-31.952 1.6223-63.11 1.4174-95.062 0.36237-6.6307 6.1926-0.66574 7.3339-0.60084 11.384z" fill="url(#g)"/>
    <path d="m219.81 630.77c-1.1214 3.8015-2.1772 4.3418 0.1386 11.111l98.714 0.35714c6.3746-4.4916 1.3269-7.4043 1.2444-11.88z" fill="url(#f)"/>
   </g>
   <path d="m222.49 245-2.4821 383.25c0.0782 6.6426-6.0619 6.5848-0.0508 13.636l98.714 0.35714c7.3216-5.5648 0.25363-5.5103 1.1813-16.931l-0.89285-380.31c-0.0912-4.414 8.7074-10.375-1.0745-14.247-31.952 1.6223-62.894 1.4178-94.846 0.36271-6.5867 6.2788 0.94133 5.8449-0.54931 13.884z" fill="url(#h)"/>
   <path d="m222.49 245c32.306 1.4911 64.589 0.9743 96.559-0.89288-0.18049-3.0747 8.6181-9.4823-1.1638-13.354-31.952 1.6223-63.02 1.5441-94.972 0.48898-6.6307 6.1926-0.7558 7.2073-0.6909 11.258z" fill="url(#g)"/>
   <path d="m219.81 630.77c-1.1214 3.8015-4.9886 4.7539 0.1386 11.111l98.714 0.35714c6.3746-4.4916 1.3269-7.4043 1.2444-11.88z" fill="url(#f)"/>
  </g>
  <g transform="matrix(1.0543 0 0 1.1614 -550.19 -121.06)">
   <g transform="matrix(.77794 0 0 1.0051 64.372 -1997.9)">
    <path d="m222.49 245-2.4821 383.25c0.0782 6.6426-6.0619 6.5848-0.0508 13.636l98.714 0.35714c7.3216-5.5648 0.25363-5.5103 1.1813-16.931l-0.89285-380.31c-0.0912-4.414 8.7074-10.375-1.0745-14.247-31.952 1.6223-63.904 1.2284-95.856 0.17331-6.6307 6.2819-0.13978 6.1837 0.46084 14.073z" fill="url(#h)"/>
    <path d="m222.49 245c32.306 1.4911 64.589 0.9743 96.559-0.89288-0.18049-3.0747 8.6181-9.4823-1.1638-13.354-31.952 1.6223-63.904 1.2284-95.856 0.17331-6.6307 6.1926 0.12808 7.523 0.19298 11.573z" fill="url(#g)"/>
    <path d="m219.81 630.77c-1.1214 3.8015-4.9886 4.7539 0.1386 11.111l98.714 0.35714c6.3746-4.4916 1.3269-7.4043 1.2444-11.88z" fill="url(#f)"/>
   </g>
   <g transform="matrix(.83195 0 0 1.0029 48.64 -1597.2)">
    <path d="m222.49 245-2.4821 383.25c0.0782 6.6426-6.0619 6.5848-0.0508 13.636l98.714 0.35714c7.3216-5.5648 0.25363-5.5103 1.1813-16.931l-0.89285-380.31c-0.0912-4.414 8.7074-10.375-1.0745-14.247-31.952 1.6223-61.172 1.3386-93.124 0.28347-6.6307 6.2819-2.8717 6.0736-2.2711 13.963z" fill="url(#h)"/>
    <path d="m222.49 245c32.306 1.4911 64.589 0.9743 96.559-0.89288-0.18049-3.0747 8.6181-9.4823-1.1638-13.354-31.952 1.6223-61.286 1.3228-93.238 0.26774-6.6307 6.1926-2.49 7.4286-2.4251 11.479z" fill="url(#g)"/>
    <path d="m219.81 630.77c-1.1214 3.8015-4.9886 4.7539 0.1386 11.111l98.714 0.35714c6.3746-4.4916 1.3269-7.4043 1.2444-11.88z" fill="url(#f)"/>
   </g>
   <g transform="matrix(.87757 0 0 1.0018 35.445 -1198)">
    <path d="m222.49 245-2.4821 383.25c0.0782 6.6426-4.0271 5.5599 1.984 12.611l96.679 1.382c7.3216-5.5648 0.25363-5.5103 1.1813-16.931l-0.89285-380.31c-0.0912-4.414 8.7074-10.375-1.0745-14.247-31.952 1.6223-62.321 1.4174-94.273 0.36237-6.6307 6.2819-1.7225 5.9946-1.1219 13.884z" fill="url(#h)"/>
    <path d="m222.49 245c32.306 1.4911 64.589 0.9743 96.559-0.89288-0.18049-3.0747 8.6181-9.4823-1.1638-13.354-31.952 1.6223-62.249 1.4805-94.201 0.42538-6.6307 6.1926-1.5266 7.2709-1.4617 11.321z" fill="url(#g)"/>
    <path d="m219.81 630.77c-1.1214 3.8015-4.9886 4.7539 0.1386 11.111l98.714 0.35714c6.3746-4.4916 1.3269-7.4043 1.2444-11.88z" fill="url(#f)"/>
   </g>
   <g transform="matrix(.92318 0 0 1.0037 22.25 -799.63)">
    <path d="m222.49 245-2.4821 383.25c0.0782 6.6426-1.5146 6.5848-0.0508 13.636l98.714 0.35714c7.3216-5.5648 0.25363-5.5103 1.1813-16.931l-0.89285-380.31c-0.0912-4.414 8.7074-10.375-1.0745-14.247-31.952 1.6223-62.308 1.4063-94.26 0.35123-6.6307 6.2819-2.1801 6.8864-1.135 13.896z" fill="url(#h)"/>
    <path d="m222.49 245c32.306 1.4911 64.589 0.9743 96.559-0.89288-0.18049-3.0747 8.6181-9.4823-1.1638-13.354-31.952 1.6223-62.308 1.4063-94.26 0.35123-7.1436 5.8152-1.2626 9.5152-1.0267 13.754z" fill="url(#g)"/>
    <path d="m219.81 630.77c-1.1214 3.8015-0.33957 3.6384 0.1386 11.111l98.714 0.35714c6.3746-4.4916 1.3269-7.4043 1.2444-11.88z" fill="url(#f)"/>
   </g>
   <g transform="matrix(.95439 0 0 1.0018 12.943 -399.94)">
    <path d="m222.49 245-2.4821 383.25c0.0782 6.6426-0.69003 5.9451-0.0508 13.636l98.714 0.35714c7.3216-5.5648 0.25363-5.5103 1.1813-16.931l-0.89285-380.31c-0.0912-4.414 8.7074-10.375-1.0745-14.247-31.952 1.6223-63.176 1.5435-95.128 0.4884-6.6307 6.2819-0.86745 5.8686-0.26683 13.758z" fill="url(#h)"/>
    <path d="m222.49 245c32.306 1.4911 64.589 0.9743 96.559-0.89288-0.18049-3.0747 8.6181-9.4823-1.1638-13.354-31.952 1.6223-63.11 1.4174-95.062 0.36237-6.6307 6.1926-0.66574 7.3339-0.60084 11.384z" fill="url(#g)"/>
    <path d="m219.81 630.77c-1.1214 3.8015-2.1772 4.3418 0.1386 11.111l98.714 0.35714c6.3746-4.4916 1.3269-7.4043 1.2444-11.88z" fill="url(#f)"/>
   </g>
   <path d="m222.49 245-2.4821 383.25c0.0782 6.6426-6.0619 6.5848-0.0508 13.636l98.714 0.35714c7.3216-5.5648 0.25363-5.5103 1.1813-16.931l-0.89285-380.31c-0.0912-4.414 8.7074-10.375-1.0745-14.247-31.952 1.6223-62.894 1.4178-94.846 0.36271-6.5867 6.2788 0.94133 5.8449-0.54931 13.884z" fill="url(#h)"/>
   <path d="m222.49 245c32.306 1.4911 64.589 0.9743 96.559-0.89288-0.18049-3.0747 8.6181-9.4823-1.1638-13.354-31.952 1.6223-63.02 1.5441-94.972 0.48898-6.6307 6.1926-0.7558 7.2073-0.6909 11.258z" fill="url(#g)"/>
   <path d="m219.81 630.77c-1.1214 3.8015-4.9886 4.7539 0.1386 11.111l98.714 0.35714c6.3746-4.4916 1.3269-7.4043 1.2444-11.88z" fill="url(#f)"/>
  </g>
  <g transform="matrix(.82193 0 0 .99965 -680.53 -87.487)">
   <g transform="matrix(.77794 0 0 1.0051 64.372 -1997.9)">
    <path d="m222.49 245-2.4821 383.25c0.0782 6.6426-6.0619 6.5848-0.0508 13.636l98.714 0.35714c7.3216-5.5648 0.25363-5.5103 1.1813-16.931l-0.89285-380.31c-0.0912-4.414 8.7074-10.375-1.0745-14.247-31.952 1.6223-63.904 1.2284-95.856 0.17331-6.6307 6.2819-0.13978 6.1837 0.46084 14.073z" fill="url(#h)"/>
    <path d="m222.49 245c32.306 1.4911 64.589 0.9743 96.559-0.89288-0.18049-3.0747 8.6181-9.4823-1.1638-13.354-31.952 1.6223-63.904 1.2284-95.856 0.17331-6.6307 6.1926 0.12808 7.523 0.19298 11.573z" fill="url(#g)"/>
    <path d="m219.81 630.77c-1.1214 3.8015-4.9886 4.7539 0.1386 11.111l98.714 0.35714c6.3746-4.4916 1.3269-7.4043 1.2444-11.88z" fill="url(#f)"/>
   </g>
   <g transform="matrix(.83195 0 0 1.0029 48.64 -1597.2)">
    <path d="m222.49 245-2.4821 383.25c0.0782 6.6426-6.0619 6.5848-0.0508 13.636l98.714 0.35714c7.3216-5.5648 0.25363-5.5103 1.1813-16.931l-0.89285-380.31c-0.0912-4.414 8.7074-10.375-1.0745-14.247-31.952 1.6223-61.172 1.3386-93.124 0.28347-6.6307 6.2819-2.8717 6.0736-2.2711 13.963z" fill="url(#h)"/>
    <path d="m222.49 245c32.306 1.4911 64.589 0.9743 96.559-0.89288-0.18049-3.0747 8.6181-9.4823-1.1638-13.354-31.952 1.6223-61.286 1.3228-93.238 0.26774-6.6307 6.1926-2.49 7.4286-2.4251 11.479z" fill="url(#g)"/>
    <path d="m219.81 630.77c-1.1214 3.8015-4.9886 4.7539 0.1386 11.111l98.714 0.35714c6.3746-4.4916 1.3269-7.4043 1.2444-11.88z" fill="url(#f)"/>
   </g>
   <g transform="matrix(.87757 0 0 1.0018 35.445 -1198)">
    <path d="m222.49 245-2.4821 383.25c0.0782 6.6426-4.0271 5.5599 1.984 12.611l96.679 1.382c7.3216-5.5648 0.25363-5.5103 1.1813-16.931l-0.89285-380.31c-0.0912-4.414 8.7074-10.375-1.0745-14.247-31.952 1.6223-62.321 1.4174-94.273 0.36237-6.6307 6.2819-1.7225 5.9946-1.1219 13.884z" fill="url(#h)"/>
    <path d="m222.49 245c32.306 1.4911 64.589 0.9743 96.559-0.89288-0.18049-3.0747 8.6181-9.4823-1.1638-13.354-31.952 1.6223-62.249 1.4805-94.201 0.42538-6.6307 6.1926-1.5266 7.2709-1.4617 11.321z" fill="url(#g)"/>
    <path d="m219.81 630.77c-1.1214 3.8015-4.9886 4.7539 0.1386 11.111l98.714 0.35714c6.3746-4.4916 1.3269-7.4043 1.2444-11.88z" fill="url(#f)"/>
   </g>
   <g transform="matrix(.92318 0 0 1.0037 22.25 -799.63)">
    <path d="m222.49 245-2.4821 383.25c0.0782 6.6426-1.5146 6.5848-0.0508 13.636l98.714 0.35714c7.3216-5.5648 0.25363-5.5103 1.1813-16.931l-0.89285-380.31c-0.0912-4.414 8.7074-10.375-1.0745-14.247-31.952 1.6223-62.308 1.4063-94.26 0.35123-6.6307 6.2819-2.1801 6.8864-1.135 13.896z" fill="url(#h)"/>
    <path d="m222.49 245c32.306 1.4911 64.589 0.9743 96.559-0.89288-0.18049-3.0747 8.6181-9.4823-1.1638-13.354-31.952 1.6223-62.308 1.4063-94.26 0.35123-7.1436 5.8152-1.2626 9.5152-1.0267 13.754z" fill="url(#g)"/>
    <path d="m219.81 630.77c-1.1214 3.8015-0.33957 3.6384 0.1386 11.111l98.714 0.35714c6.3746-4.4916 1.3269-7.4043 1.2444-11.88z" fill="url(#f)"/>
   </g>
   <g transform="matrix(.95439 0 0 1.0018 12.943 -399.94)">
    <path d="m222.49 245-2.4821 383.25c0.0782 6.6426-0.69003 5.9451-0.0508 13.636l98.714 0.35714c7.3216-5.5648 0.25363-5.5103 1.1813-16.931l-0.89285-380.31c-0.0912-4.414 8.7074-10.375-1.0745-14.247-31.952 1.6223-63.176 1.5435-95.128 0.4884-6.6307 6.2819-0.86745 5.8686-0.26683 13.758z" fill="url(#h)"/>
    <path d="m222.49 245c32.306 1.4911 64.589 0.9743 96.559-0.89288-0.18049-3.0747 8.6181-9.4823-1.1638-13.354-31.952 1.6223-63.11 1.4174-95.062 0.36237-6.6307 6.1926-0.66574 7.3339-0.60084 11.384z" fill="url(#g)"/>
    <path d="m219.81 630.77c-1.1214 3.8015-2.1772 4.3418 0.1386 11.111l98.714 0.35714c6.3746-4.4916 1.3269-7.4043 1.2444-11.88z" fill="url(#f)"/>
   </g>
   <path d="m222.49 245-2.4821 383.25c0.0782 6.6426-6.0619 6.5848-0.0508 13.636l98.714 0.35714c7.3216-5.5648 0.25363-5.5103 1.1813-16.931l-0.89285-380.31c-0.0912-4.414 8.7074-10.375-1.0745-14.247-31.952 1.6223-62.894 1.4178-94.846 0.36271-6.5867 6.2788 0.94133 5.8449-0.54931 13.884z" fill="url(#h)"/>
   <path d="m222.49 245c32.306 1.4911 64.589 0.9743 96.559-0.89288-0.18049-3.0747 8.6181-9.4823-1.1638-13.354-31.952 1.6223-63.02 1.5441-94.972 0.48898-6.6307 6.1926-0.7558 7.2073-0.6909 11.258z" fill="url(#g)"/>
   <path d="m219.81 630.77c-1.1214 3.8015-4.9886 4.7539 0.1386 11.111l98.714 0.35714c6.3746-4.4916 1.3269-7.4043 1.2444-11.88z" fill="url(#f)"/>
  </g>
  <g transform="matrix(.33021 -.0389 .0389 .33021 -163.54 -1726)">
   <path d="m-2147.5-762.88c-58.704 18.833-113.29 26.481-189.91 93.944-69.523 78.314-147.72 154.15-200.01 237.39l276.78-216.17c39.607-40.28 76.094-77.441 113.14-115.16z" fill="url(#p)"/>
   <path d="m-2134.3-683.08c-192.52 194.98-227.57 451.16-259.61 571.75l150.51-324.26c43.15-75.033 91.619-144.21 109.1-247.49z" fill="url(#o)"/>
   <path d="m-2075.7-734.6c63.988 74.217 103.82 180.79 144.45 275.77 21.304 183.78 10.688 358.43 15.152 537.4l-156.57-531.34c-33.597-104.22-5.2584-191.94-3.0304-281.83z" fill="url(#n)"/>
   <path d="m-2105-773.99 161.62 384.87c307.08 347.78 171.64 190.58 256.58 284.86l-121.22-314.16c-89.507-143.47-349.94-474.14-296.98-355.57z" fill="url(#m)"/>
   <path d="m-2015.1-757.83c283.33-53.132 484-10.735 646.5 75.761-206.27-38.773-365.98-61.932-646.5-75.761z" fill="url(#l)"/>
  </g>
  <g transform="matrix(.12577 -.042 .042 .12577 58.501 -1666)">
   <path d="m-2147.5-762.88c-58.704 18.833-113.29 26.481-189.91 93.944-69.523 78.314-147.72 154.15-200.01 237.39l276.78-216.17c39.607-40.28 76.094-77.441 113.14-115.16z" fill="url(#p)"/>
   <path d="m-2134.3-683.08c-192.52 194.98-227.57 451.16-259.61 571.75l150.51-324.26c43.15-75.033 91.619-144.21 109.1-247.49z" fill="url(#o)"/>
   <path d="m-2075.7-734.6c63.988 74.217 103.82 180.79 144.45 275.77 21.304 183.78 10.688 358.43 15.152 537.4l-156.57-531.34c-33.597-104.22-5.2584-191.94-3.0304-281.83z" fill="url(#n)"/>
   <path d="m-2105-773.99 161.62 384.87c307.08 347.78 171.64 190.58 256.58 284.86l-121.22-314.16c-89.507-143.47-349.94-474.14-296.98-355.57z" fill="url(#m)"/>
   <path d="m-2015.1-757.83c283.33-53.132 484-10.735 646.5 75.761-206.27-38.773-365.98-61.932-646.5-75.761z" fill="url(#l)"/>
  </g>
  <g transform="matrix(.1851 -.05042 .05042 .1851 38.49 -365.7)">
   <path d="m-2147.5-762.88c-58.704 18.833-113.29 26.481-189.91 93.944-69.523 78.314-147.72 154.15-200.01 237.39l276.78-216.17c39.607-40.28 76.094-77.441 113.14-115.16z" fill="url(#p)"/>
   <path d="m-2134.3-683.08c-192.52 194.98-227.57 451.16-259.61 571.75l150.51-324.26c43.15-75.033 91.619-144.21 109.1-247.49z" fill="url(#o)"/>
   <path d="m-2075.7-734.6c63.988 74.217 103.82 180.79 144.45 275.77 21.304 183.78 10.688 358.43 15.152 537.4l-156.57-531.34c-33.597-104.22-5.2584-191.94-3.0304-281.83z" fill="url(#n)"/>
   <path d="m-2105-773.99 161.62 384.87c307.08 347.78 171.64 190.58 256.58 284.86l-121.22-314.16c-89.507-143.47-349.94-474.14-296.98-355.57z" fill="url(#m)"/>
   <path d="m-2015.1-757.83c283.33-53.132 484-10.735 646.5 75.761-206.27-38.773-365.98-61.932-646.5-75.761z" fill="url(#l)"/>
  </g>
  <g transform="matrix(.1023 .00601 -.00601 .1023 -241.39 -864.52)">
   <path d="m-2147.5-762.88c-58.704 18.833-113.29 26.481-189.91 93.944-69.523 78.314-147.72 154.15-200.01 237.39l276.78-216.17c39.607-40.28 76.094-77.441 113.14-115.16z" fill="url(#p)"/>
   <path d="m-2134.3-683.08c-192.52 194.98-227.57 451.16-259.61 571.75l150.51-324.26c43.15-75.033 91.619-144.21 109.1-247.49z" fill="url(#o)"/>
   <path d="m-2075.7-734.6c63.988 74.217 103.82 180.79 144.45 275.77 21.304 183.78 10.688 358.43 15.152 537.4l-156.57-531.34c-33.597-104.22-5.2584-191.94-3.0304-281.83z" fill="url(#n)"/>
   <path d="m-2105-773.99 161.62 384.87c307.08 347.78 171.64 190.58 256.58 284.86l-121.22-314.16c-89.507-143.47-349.94-474.14-296.98-355.57z" fill="url(#m)"/>
   <path d="m-2015.1-757.83c283.33-53.132 484-10.735 646.5 75.761-206.27-38.773-365.98-61.932-646.5-75.761z" fill="url(#l)"/>
  </g>
  <g transform="matrix(.33021 -.0389 .0389 .33021 -163.54 -1726)">
   <path d="m-2147.5-762.88c-58.704 18.833-113.29 26.481-189.91 93.944-69.523 78.314-147.72 154.15-200.01 237.39l276.78-216.17c39.607-40.28 76.094-77.441 113.14-115.16z" fill="url(#p)"/>
   <path d="m-2134.3-683.08c-192.52 194.98-227.57 451.16-259.61 571.75l150.51-324.26c43.15-75.033 91.619-144.21 109.1-247.49z" fill="url(#o)"/>
   <path d="m-2075.7-734.6c63.988 74.217 103.82 180.79 144.45 275.77 21.304 183.78 10.688 358.43 15.152 537.4l-156.57-531.34c-33.597-104.22-5.2584-191.94-3.0304-281.83z" fill="url(#n)"/>
   <path d="m-2105-773.99 161.62 384.87c307.08 347.78 171.64 190.58 256.58 284.86l-121.22-314.16c-89.507-143.47-349.94-474.14-296.98-355.57z" fill="url(#m)"/>
   <path d="m-2015.1-757.83c283.33-53.132 484-10.735 646.5 75.761-206.27-38.773-365.98-61.932-646.5-75.761z" fill="url(#l)"/>
  </g>
 </g>
</svg>
